<mxfile host="app.diagrams.net" agent="Mozilla/5.0 (Windows NT 10.0; Win64; x64) AppleWebKit/537.36 (KHTML, like Gecko) Chrome/130.0.0.0 Safari/537.36" version="26.0.10">
  <diagram name="Página-1" id="dKh_83LAhFtNhtPP4PR-">
    <mxGraphModel dx="4530" dy="1054" grid="1" gridSize="10" guides="1" tooltips="1" connect="1" arrows="1" fold="1" page="1" pageScale="1" pageWidth="827" pageHeight="1169" math="0" shadow="0">
      <root>
        <mxCell id="0" />
        <mxCell id="1" parent="0" />
        <mxCell id="ijc_PqPBQy4UtmLmBojz-7" value="&lt;h1 style=&quot;margin-top: 0px;&quot;&gt;&lt;p&gt;&lt;strong&gt;Processo de Solicitação de Equipamento (Inclusão de Assinatura Remota):&lt;/strong&gt;&lt;/p&gt;&lt;ol&gt;&lt;li&gt;&lt;p&gt;&lt;strong&gt;Solicitação do Equipamento:&lt;/strong&gt; O colaborador faz a solicitação via WhatsApp ou e-mail.&lt;/p&gt;&lt;/li&gt;&lt;li&gt;&lt;p&gt;&lt;strong&gt;Geração do Termo:&lt;/strong&gt; O administrativo verifica a solicitação e cria um termo com os dados do solicitante e do equipamento.&lt;/p&gt;&lt;/li&gt;&lt;li&gt;&lt;p&gt;&lt;strong&gt;Envio do Termo para Assinatura:&lt;/strong&gt;&lt;/p&gt;&lt;ul&gt;&lt;li&gt;O administrativo envia o termo para o e-mail profissional do colaborador.&lt;/li&gt;&lt;li&gt;O colaborador possui opções de assinar digitalmente pelo celular, acessar site para assinar ou imprimir e assinar e digitalizar&lt;/li&gt;&lt;li&gt;O colaborador assina o documento digitalmente, usando uma plataforma gratuita como SmallPDF, Drive com Android e Iphone possui funcionalidade para assinatura.&lt;/li&gt;&lt;li&gt;Técnico pode orientar o colaborador como efetuar.&lt;/li&gt;&lt;/ul&gt;&lt;/li&gt;&lt;li&gt;&lt;p&gt;&lt;strong&gt;Caso o Colaborador esteja distante (fora do local físico):&lt;/strong&gt;&lt;/p&gt;&lt;ul&gt;&lt;li&gt;O colaborador assina digitalmente o termo e retorna o documento assinado por e-mail.&lt;/li&gt;&lt;li&gt;Se o colaborador estiver em uma localidade muito distante, o termo será enviado por e-mail para assinatura digital, sem necessidade de contato físico.&lt;/li&gt;&lt;/ul&gt;&lt;/li&gt;&lt;li&gt;&lt;p&gt;&lt;strong&gt;Entrega do Equipamento:&lt;/strong&gt; O técnico realiza a entrega do equipamento conforme a solicitação e anexa a entrega ao chamado.&lt;br&gt;Trabalho remoto, logística para outros lugares, encaminhar Localizador dos correios e informar a data de precisão para chegada&lt;/p&gt;&lt;/li&gt;&lt;li&gt;&lt;p&gt;&lt;strong&gt;Categorização e Fechamento do Chamado:&lt;/strong&gt;&lt;/p&gt;&lt;ul&gt;&lt;li&gt;O chamado é transferido para a categoria &quot;Assinatura&quot; (ou categoria específica para acompanhamento de documentos assinados).&lt;/li&gt;&lt;li&gt;O administrativo recebe o retorno do documento assinado e faz a verificação.&lt;/li&gt;&lt;li&gt;Após a confirmação de que o termo foi assinado, o administrativo anexa o documento assinado ao chamado e o fecha no sistema.&lt;/li&gt;&lt;/ul&gt;&lt;/li&gt;&lt;/ol&gt;&lt;/h1&gt;" style="text;html=1;whiteSpace=wrap;overflow=hidden;rounded=0;" vertex="1" parent="1">
          <mxGeometry x="-2000" width="1180" height="990" as="geometry" />
        </mxCell>
        <mxCell id="ijc_PqPBQy4UtmLmBojz-35" style="edgeStyle=orthogonalEdgeStyle;rounded=0;orthogonalLoop=1;jettySize=auto;html=1;exitX=0;exitY=0.5;exitDx=0;exitDy=0;entryX=0.5;entryY=0;entryDx=0;entryDy=0;" edge="1" parent="1" target="ijc_PqPBQy4UtmLmBojz-34">
          <mxGeometry relative="1" as="geometry">
            <mxPoint x="390" y="160" as="sourcePoint" />
          </mxGeometry>
        </mxCell>
        <mxCell id="ijc_PqPBQy4UtmLmBojz-40" style="edgeStyle=orthogonalEdgeStyle;rounded=0;orthogonalLoop=1;jettySize=auto;html=1;exitX=1;exitY=0.5;exitDx=0;exitDy=0;entryX=0.5;entryY=0;entryDx=0;entryDy=0;" edge="1" parent="1" target="ijc_PqPBQy4UtmLmBojz-39">
          <mxGeometry relative="1" as="geometry">
            <mxPoint x="470" y="160" as="sourcePoint" />
          </mxGeometry>
        </mxCell>
        <mxCell id="ijc_PqPBQy4UtmLmBojz-28" value="Iphone" style="whiteSpace=wrap;html=1;rounded=1;" vertex="1" parent="1">
          <mxGeometry x="20" y="320" width="120" height="60" as="geometry" />
        </mxCell>
        <mxCell id="ijc_PqPBQy4UtmLmBojz-51" style="edgeStyle=orthogonalEdgeStyle;rounded=0;orthogonalLoop=1;jettySize=auto;html=1;exitX=0.5;exitY=1;exitDx=0;exitDy=0;entryX=0;entryY=0.5;entryDx=0;entryDy=0;" edge="1" parent="1" source="ijc_PqPBQy4UtmLmBojz-30" target="ijc_PqPBQy4UtmLmBojz-53">
          <mxGeometry relative="1" as="geometry">
            <mxPoint x="219.64705882352973" y="590" as="targetPoint" />
          </mxGeometry>
        </mxCell>
        <mxCell id="ijc_PqPBQy4UtmLmBojz-30" value="&lt;a href=&quot;https://smallpdf.com/sign-pdf#r=app&quot;&gt;SignPdf&lt;/a&gt;" style="whiteSpace=wrap;html=1;rounded=1;" vertex="1" parent="1">
          <mxGeometry x="160" y="320" width="120" height="60" as="geometry" />
        </mxCell>
        <mxCell id="ijc_PqPBQy4UtmLmBojz-32" value="Android&lt;br&gt;(Drive)" style="whiteSpace=wrap;html=1;rounded=1;" vertex="1" parent="1">
          <mxGeometry x="300" y="320" width="120" height="60" as="geometry" />
        </mxCell>
        <mxCell id="ijc_PqPBQy4UtmLmBojz-36" style="edgeStyle=orthogonalEdgeStyle;rounded=0;orthogonalLoop=1;jettySize=auto;html=1;exitX=0;exitY=0.5;exitDx=0;exitDy=0;entryX=0.5;entryY=0;entryDx=0;entryDy=0;" edge="1" parent="1" source="ijc_PqPBQy4UtmLmBojz-34">
          <mxGeometry relative="1" as="geometry">
            <mxPoint x="80" y="320" as="targetPoint" />
          </mxGeometry>
        </mxCell>
        <mxCell id="ijc_PqPBQy4UtmLmBojz-37" style="edgeStyle=orthogonalEdgeStyle;rounded=0;orthogonalLoop=1;jettySize=auto;html=1;exitX=0.5;exitY=1;exitDx=0;exitDy=0;" edge="1" parent="1" source="ijc_PqPBQy4UtmLmBojz-34" target="ijc_PqPBQy4UtmLmBojz-30">
          <mxGeometry relative="1" as="geometry" />
        </mxCell>
        <mxCell id="ijc_PqPBQy4UtmLmBojz-38" style="edgeStyle=orthogonalEdgeStyle;rounded=0;orthogonalLoop=1;jettySize=auto;html=1;exitX=1;exitY=0.5;exitDx=0;exitDy=0;entryX=0.5;entryY=0;entryDx=0;entryDy=0;" edge="1" parent="1" source="ijc_PqPBQy4UtmLmBojz-34" target="ijc_PqPBQy4UtmLmBojz-32">
          <mxGeometry relative="1" as="geometry" />
        </mxCell>
        <mxCell id="ijc_PqPBQy4UtmLmBojz-34" value="Digital" style="rhombus;whiteSpace=wrap;html=1;rounded=1;" vertex="1" parent="1">
          <mxGeometry x="180" y="220" width="80" height="80" as="geometry" />
        </mxCell>
        <mxCell id="ijc_PqPBQy4UtmLmBojz-48" style="edgeStyle=orthogonalEdgeStyle;rounded=0;orthogonalLoop=1;jettySize=auto;html=1;exitX=0.5;exitY=1;exitDx=0;exitDy=0;entryX=0.5;entryY=0;entryDx=0;entryDy=0;" edge="1" parent="1" source="ijc_PqPBQy4UtmLmBojz-39" target="ijc_PqPBQy4UtmLmBojz-47">
          <mxGeometry relative="1" as="geometry" />
        </mxCell>
        <mxCell id="ijc_PqPBQy4UtmLmBojz-39" value="Físico" style="rhombus;whiteSpace=wrap;html=1;rounded=1;" vertex="1" parent="1">
          <mxGeometry x="620" y="220" width="80" height="80" as="geometry" />
        </mxCell>
        <mxCell id="ijc_PqPBQy4UtmLmBojz-50" style="edgeStyle=orthogonalEdgeStyle;rounded=0;orthogonalLoop=1;jettySize=auto;html=1;exitX=1;exitY=0.5;exitDx=0;exitDy=0;" edge="1" parent="1" source="ijc_PqPBQy4UtmLmBojz-47" target="ijc_PqPBQy4UtmLmBojz-49">
          <mxGeometry relative="1" as="geometry" />
        </mxCell>
        <mxCell id="ijc_PqPBQy4UtmLmBojz-54" style="edgeStyle=orthogonalEdgeStyle;rounded=0;orthogonalLoop=1;jettySize=auto;html=1;exitX=0.5;exitY=1;exitDx=0;exitDy=0;entryX=1;entryY=0.5;entryDx=0;entryDy=0;" edge="1" parent="1" source="ijc_PqPBQy4UtmLmBojz-47" target="ijc_PqPBQy4UtmLmBojz-53">
          <mxGeometry relative="1" as="geometry" />
        </mxCell>
        <mxCell id="ijc_PqPBQy4UtmLmBojz-47" value="Imprimir" style="whiteSpace=wrap;html=1;rounded=1;" vertex="1" parent="1">
          <mxGeometry x="600" y="320" width="120" height="60" as="geometry" />
        </mxCell>
        <mxCell id="ijc_PqPBQy4UtmLmBojz-49" value="ISO 14001" style="text;html=1;align=center;verticalAlign=middle;resizable=0;points=[];autosize=1;strokeColor=none;fillColor=none;" vertex="1" parent="1">
          <mxGeometry x="737" y="335" width="80" height="30" as="geometry" />
        </mxCell>
        <mxCell id="ijc_PqPBQy4UtmLmBojz-52" value="Fim" style="ellipse;whiteSpace=wrap;html=1;aspect=fixed;" vertex="1" parent="1">
          <mxGeometry x="390" y="660" width="80" height="80" as="geometry" />
        </mxCell>
        <mxCell id="ijc_PqPBQy4UtmLmBojz-55" style="edgeStyle=orthogonalEdgeStyle;rounded=0;orthogonalLoop=1;jettySize=auto;html=1;exitX=0.5;exitY=1;exitDx=0;exitDy=0;entryX=0.5;entryY=0;entryDx=0;entryDy=0;" edge="1" parent="1" source="ijc_PqPBQy4UtmLmBojz-53" target="ijc_PqPBQy4UtmLmBojz-52">
          <mxGeometry relative="1" as="geometry" />
        </mxCell>
        <mxCell id="ijc_PqPBQy4UtmLmBojz-53" value="Termo Assinado" style="whiteSpace=wrap;html=1;rounded=1;" vertex="1" parent="1">
          <mxGeometry x="370" y="480" width="120" height="60" as="geometry" />
        </mxCell>
        <mxCell id="ijc_PqPBQy4UtmLmBojz-72" style="edgeStyle=orthogonalEdgeStyle;rounded=0;orthogonalLoop=1;jettySize=auto;html=1;exitX=1;exitY=0.5;exitDx=0;exitDy=0;entryX=0;entryY=0.5;entryDx=0;entryDy=0;" edge="1" parent="1" source="ijc_PqPBQy4UtmLmBojz-56" target="ijc_PqPBQy4UtmLmBojz-57">
          <mxGeometry relative="1" as="geometry" />
        </mxCell>
        <mxCell id="ijc_PqPBQy4UtmLmBojz-56" value="Inicio" style="ellipse;whiteSpace=wrap;html=1;aspect=fixed;" vertex="1" parent="1">
          <mxGeometry x="-820" y="120" width="80" height="80" as="geometry" />
        </mxCell>
        <mxCell id="ijc_PqPBQy4UtmLmBojz-71" style="edgeStyle=orthogonalEdgeStyle;rounded=0;orthogonalLoop=1;jettySize=auto;html=1;exitX=1;exitY=0.5;exitDx=0;exitDy=0;entryX=0;entryY=0.5;entryDx=0;entryDy=0;" edge="1" parent="1" source="ijc_PqPBQy4UtmLmBojz-57" target="ijc_PqPBQy4UtmLmBojz-58">
          <mxGeometry relative="1" as="geometry" />
        </mxCell>
        <mxCell id="ijc_PqPBQy4UtmLmBojz-57" value="Colaborador solicita equipamento" style="whiteSpace=wrap;html=1;rounded=1;" vertex="1" parent="1">
          <mxGeometry x="-677" y="130" width="120" height="60" as="geometry" />
        </mxCell>
        <mxCell id="ijc_PqPBQy4UtmLmBojz-70" style="edgeStyle=orthogonalEdgeStyle;rounded=0;orthogonalLoop=1;jettySize=auto;html=1;exitX=1;exitY=0.5;exitDx=0;exitDy=0;entryX=0;entryY=0.5;entryDx=0;entryDy=0;" edge="1" parent="1" source="ijc_PqPBQy4UtmLmBojz-58" target="ijc_PqPBQy4UtmLmBojz-59">
          <mxGeometry relative="1" as="geometry" />
        </mxCell>
        <mxCell id="ijc_PqPBQy4UtmLmBojz-58" value="&lt;span class=&quot;hljs-selector-attr&quot;&gt;Administrativo cria o Termo de Solicitação&lt;/span&gt;" style="whiteSpace=wrap;html=1;rounded=1;" vertex="1" parent="1">
          <mxGeometry x="-486" y="130" width="120" height="60" as="geometry" />
        </mxCell>
        <mxCell id="ijc_PqPBQy4UtmLmBojz-69" style="edgeStyle=orthogonalEdgeStyle;rounded=0;orthogonalLoop=1;jettySize=auto;html=1;exitX=0.5;exitY=1;exitDx=0;exitDy=0;entryX=0.5;entryY=0;entryDx=0;entryDy=0;" edge="1" parent="1" source="ijc_PqPBQy4UtmLmBojz-59" target="ijc_PqPBQy4UtmLmBojz-61">
          <mxGeometry relative="1" as="geometry" />
        </mxCell>
        <mxCell id="ijc_PqPBQy4UtmLmBojz-59" value="&lt;span class=&quot;hljs-selector-attr&quot;&gt;Termo é enviado para o e-mail do colaborador&lt;/span&gt;" style="whiteSpace=wrap;html=1;rounded=1;" vertex="1" parent="1">
          <mxGeometry x="-257" y="130" width="120" height="60" as="geometry" />
        </mxCell>
        <mxCell id="ijc_PqPBQy4UtmLmBojz-76" style="edgeStyle=orthogonalEdgeStyle;rounded=0;orthogonalLoop=1;jettySize=auto;html=1;exitX=0;exitY=0.5;exitDx=0;exitDy=0;entryX=1;entryY=0.5;entryDx=0;entryDy=0;" edge="1" parent="1" source="ijc_PqPBQy4UtmLmBojz-61" target="ijc_PqPBQy4UtmLmBojz-66">
          <mxGeometry relative="1" as="geometry" />
        </mxCell>
        <mxCell id="ijc_PqPBQy4UtmLmBojz-77" value="Não" style="edgeLabel;html=1;align=center;verticalAlign=middle;resizable=0;points=[];" vertex="1" connectable="0" parent="ijc_PqPBQy4UtmLmBojz-76">
          <mxGeometry x="-0.1929" y="1" relative="1" as="geometry">
            <mxPoint as="offset" />
          </mxGeometry>
        </mxCell>
        <mxCell id="ijc_PqPBQy4UtmLmBojz-79" style="edgeStyle=orthogonalEdgeStyle;rounded=0;orthogonalLoop=1;jettySize=auto;html=1;exitX=0.5;exitY=1;exitDx=0;exitDy=0;entryX=0.5;entryY=0;entryDx=0;entryDy=0;" edge="1" parent="1" source="ijc_PqPBQy4UtmLmBojz-61" target="ijc_PqPBQy4UtmLmBojz-78">
          <mxGeometry relative="1" as="geometry" />
        </mxCell>
        <mxCell id="ijc_PqPBQy4UtmLmBojz-88" value="Sim" style="edgeLabel;html=1;align=center;verticalAlign=middle;resizable=0;points=[];" vertex="1" connectable="0" parent="ijc_PqPBQy4UtmLmBojz-79">
          <mxGeometry x="-0.3012" y="6" relative="1" as="geometry">
            <mxPoint as="offset" />
          </mxGeometry>
        </mxCell>
        <mxCell id="ijc_PqPBQy4UtmLmBojz-61" value="&lt;span class=&quot;hljs-selector-attr&quot;&gt;Colaborador assinou termo?&lt;/span&gt;" style="rhombus;whiteSpace=wrap;html=1;" vertex="1" parent="1">
          <mxGeometry x="-267" y="270" width="140" height="120" as="geometry" />
        </mxCell>
        <mxCell id="ijc_PqPBQy4UtmLmBojz-80" style="edgeStyle=orthogonalEdgeStyle;rounded=0;orthogonalLoop=1;jettySize=auto;html=1;exitX=0.5;exitY=1;exitDx=0;exitDy=0;entryX=0;entryY=0.5;entryDx=0;entryDy=0;" edge="1" parent="1" source="ijc_PqPBQy4UtmLmBojz-66" target="ijc_PqPBQy4UtmLmBojz-78">
          <mxGeometry relative="1" as="geometry" />
        </mxCell>
        <mxCell id="ijc_PqPBQy4UtmLmBojz-66" value="&lt;span class=&quot;hljs-selector-attr&quot;&gt;Técnico orienta imprimir ou assinar digitalmente&lt;/span&gt;" style="rounded=1;whiteSpace=wrap;html=1;" vertex="1" parent="1">
          <mxGeometry x="-487" y="300" width="120" height="60" as="geometry" />
        </mxCell>
        <mxCell id="ijc_PqPBQy4UtmLmBojz-85" style="edgeStyle=orthogonalEdgeStyle;rounded=0;orthogonalLoop=1;jettySize=auto;html=1;exitX=1;exitY=1;exitDx=0;exitDy=0;" edge="1" parent="1" source="ijc_PqPBQy4UtmLmBojz-78">
          <mxGeometry relative="1" as="geometry">
            <mxPoint x="-77" y="700" as="targetPoint" />
          </mxGeometry>
        </mxCell>
        <mxCell id="ijc_PqPBQy4UtmLmBojz-89" value="Remoto" style="edgeLabel;html=1;align=center;verticalAlign=middle;resizable=0;points=[];" vertex="1" connectable="0" parent="ijc_PqPBQy4UtmLmBojz-85">
          <mxGeometry x="-0.6843" y="-1" relative="1" as="geometry">
            <mxPoint x="5" as="offset" />
          </mxGeometry>
        </mxCell>
        <mxCell id="ijc_PqPBQy4UtmLmBojz-86" style="edgeStyle=orthogonalEdgeStyle;rounded=0;orthogonalLoop=1;jettySize=auto;html=1;exitX=0;exitY=1;exitDx=0;exitDy=0;" edge="1" parent="1" source="ijc_PqPBQy4UtmLmBojz-78">
          <mxGeometry relative="1" as="geometry">
            <mxPoint x="-307" y="700" as="targetPoint" />
          </mxGeometry>
        </mxCell>
        <mxCell id="ijc_PqPBQy4UtmLmBojz-91" value="Presencial" style="edgeLabel;html=1;align=center;verticalAlign=middle;resizable=0;points=[];" vertex="1" connectable="0" parent="ijc_PqPBQy4UtmLmBojz-86">
          <mxGeometry x="-0.7239" y="2" relative="1" as="geometry">
            <mxPoint x="-8" y="-4" as="offset" />
          </mxGeometry>
        </mxCell>
        <mxCell id="ijc_PqPBQy4UtmLmBojz-78" value="Verificação da Distância do Colaborador" style="rhombus;whiteSpace=wrap;html=1;" vertex="1" parent="1">
          <mxGeometry x="-262" y="475" width="130" height="110" as="geometry" />
        </mxCell>
        <mxCell id="ijc_PqPBQy4UtmLmBojz-92" style="edgeStyle=orthogonalEdgeStyle;rounded=0;orthogonalLoop=1;jettySize=auto;html=1;exitX=0.5;exitY=1;exitDx=0;exitDy=0;entryX=1;entryY=0.5;entryDx=0;entryDy=0;" edge="1" parent="1" source="ijc_PqPBQy4UtmLmBojz-82" target="ijc_PqPBQy4UtmLmBojz-93">
          <mxGeometry relative="1" as="geometry">
            <mxPoint x="-97" y="900" as="targetPoint" />
          </mxGeometry>
        </mxCell>
        <mxCell id="ijc_PqPBQy4UtmLmBojz-82" value="Logística entrega para transportadora" style="rounded=1;whiteSpace=wrap;html=1;" vertex="1" parent="1">
          <mxGeometry x="-137" y="630" width="120" height="60" as="geometry" />
        </mxCell>
        <mxCell id="ijc_PqPBQy4UtmLmBojz-94" style="edgeStyle=orthogonalEdgeStyle;rounded=0;orthogonalLoop=1;jettySize=auto;html=1;exitX=0.5;exitY=1;exitDx=0;exitDy=0;entryX=0;entryY=0.5;entryDx=0;entryDy=0;" edge="1" parent="1" source="ijc_PqPBQy4UtmLmBojz-87" target="ijc_PqPBQy4UtmLmBojz-93">
          <mxGeometry relative="1" as="geometry" />
        </mxCell>
        <mxCell id="ijc_PqPBQy4UtmLmBojz-87" value="Técnico Entrega" style="rounded=1;whiteSpace=wrap;html=1;" vertex="1" parent="1">
          <mxGeometry x="-366" y="630" width="120" height="60" as="geometry" />
        </mxCell>
        <mxCell id="ijc_PqPBQy4UtmLmBojz-93" value="Fim" style="ellipse;whiteSpace=wrap;html=1;aspect=fixed;" vertex="1" parent="1">
          <mxGeometry x="-237" y="720" width="80" height="80" as="geometry" />
        </mxCell>
        <mxCell id="ijc_PqPBQy4UtmLmBojz-96" value="Inicio" style="ellipse;whiteSpace=wrap;html=1;aspect=fixed;" vertex="1" parent="1">
          <mxGeometry x="390" y="120" width="80" height="80" as="geometry" />
        </mxCell>
        <mxCell id="ijc_PqPBQy4UtmLmBojz-97" value="&lt;font style=&quot;font-size: 26px;&quot;&gt;Processo para solicitação de equipamento&lt;/font&gt;" style="text;html=1;align=center;verticalAlign=middle;whiteSpace=wrap;rounded=0;" vertex="1" parent="1">
          <mxGeometry x="-687" y="10" width="520" height="100" as="geometry" />
        </mxCell>
        <mxCell id="ijc_PqPBQy4UtmLmBojz-98" value="&lt;font style=&quot;font-size: 26px;&quot;&gt;Orientação para assinatura&lt;/font&gt;" style="text;html=1;align=center;verticalAlign=middle;whiteSpace=wrap;rounded=0;" vertex="1" parent="1">
          <mxGeometry x="170" y="10" width="520" height="100" as="geometry" />
        </mxCell>
      </root>
    </mxGraphModel>
  </diagram>
</mxfile>
